<?xml version="1.0" encoding="utf-8"?>
<!-- Generator: Adobe Illustrator 19.0.0, SVG Export Plug-In . SVG Version: 6.00 Build 0)  -->
<svg version="1.1" id="Layer_1" xmlns="http://www.w3.org/2000/svg" xmlns:xlink="http://www.w3.org/1999/xlink" x="0px" y="0px"
	 viewBox="-429 231 100 100" style="enable-background:new -429 231 100 100;" xml:space="preserve">
<style type="text/css">
	.st0{fill:#FFFFFF;}
</style>
<path class="st0" d="M-342.8,246.5c-0.3-0.6-0.9-1-1.6-1h-67.1c-0.7,0-1.3,0.4-1.6,1s-0.1,1.3,0.4,1.8l33.1,33.1v29.1l-15.6,4.7
	c-0.8,0.2-1.3,1-1.2,1.9c0.1,0.8,0.8,1.4,1.7,1.4h33.6l0,0c0.9,0,1.7-0.8,1.7-1.7c0-0.8-0.6-1.5-1.4-1.7l-15.4-4.6v-29.1l18.1-18.1
	l0,0l15-15C-342.7,247.9-342.6,247.2-342.8,246.5z M-377.9,278.4l-15.5-15.5c2.9-0.9,8.3-1.7,13.9,0.9c3.3,1.5,6.7,2.1,9.8,2.1
	c1.7,0,3.3-0.2,4.8-0.4L-377.9,278.4z M-383.3,315.1l5.3-1.6l5.3,1.6H-383.3z M-360.3,260.7c-1.6,0.6-10.2,3.4-17.8-0.1
	c-7.9-3.7-15.2-1.5-18-0.5l-11.3-11.3h59L-360.3,260.7z"/>
</svg>
