<?xml version="1.0" encoding="utf-8"?>
<!-- Generator: Adobe Illustrator 19.0.0, SVG Export Plug-In . SVG Version: 6.00 Build 0)  -->
<svg version="1.1" id="Layer_1" xmlns="http://www.w3.org/2000/svg" xmlns:xlink="http://www.w3.org/1999/xlink" x="0px" y="0px"
	 viewBox="-429 229.3 100 102.7" style="enable-background:new -429 229.3 100 102.7;" xml:space="preserve">
<style type="text/css">
	.st0{fill:#FFFFFF;}
</style>
<title>food and reciep</title>
<path class="st0" d="M-354.4,262.6c-4.7-4.3-11.4-5.6-17.3-3.2l-6.1,2.3c0.2-1.6,0.2-3.2,0.2-4.7c0.7,0,1.4,0.1,2.1,0.1
	c4.3,0,7.9-1.1,10.5-3.3c2.5-2.1,4.1-5.2,4.4-8.5c0-0.8-0.5-1.5-1.3-1.5c-8.8-0.9-13.9,3.6-16.5,7.1c-1.2-4.8-4-9-7.9-12
	c-0.7-0.5-1.6-0.3-2.1,0.4c-0.5,0.7-0.3,1.6,0.4,2.1c0.3,0.2,6.2,4.3,7.3,13.7c0,0.3,0,0.5,0.1,0.8c0.2,2.1,0.1,4.3-0.2,6.4
	l-7.4-2.8c-8.7-3.3-18.5,1-21.9,9.8c-1.3,3.3-1.5,7-0.5,10.4l8.8,27.5c0.9,3.6,3.3,6.7,6.6,8.4c2.1,1.2,4.6,1.4,6.9,0.6l2.4-0.5
	c4.1-0.8,8.4-0.7,12.4,0.5c1.1,0.3,2.3,0.5,3.4,0.5c5.7,0,10.6-3.9,12-9.5l8.8-27.6C-347.7,273.4-349.6,266.8-354.4,262.6z
	 M-364,246.6c-0.5,1.9-1.5,3.6-3,4.8c-2.3,2-5.7,2.8-10,2.5C-374.3,249.3-369.3,246.4-364,246.6z M-352.2,278.7l-8.8,27.6v0.1
	c-1.2,5-6.1,8.1-11.1,7c-0.2,0-0.3-0.1-0.5-0.1c-4.5-1.3-9.2-1.5-13.8-0.6l-2.6,0.5c-0.1,0-0.2,0.1-0.3,0.1
	c-1.5,0.5-3.1,0.3-4.5-0.5c-2.5-1.3-4.4-3.7-5-6.5v-0.1l-8.8-27.5c-1.9-7.5,2.5-15.1,10-17c2.7-0.7,5.6-0.6,8.3,0.4l8.4,3.2
	c0.3,0.1,0.6,0.1,0.9,0c0.3,0.1,0.6,0.1,0.9,0l8.4-3.2c7.2-2.7,15.2,0.9,18,8.1C-351.7,273-351.5,275.9-352.2,278.7z"/>
<path class="st0" d="M-366.6,265c-0.8-0.1-1.6,0.5-1.7,1.3c-0.1,0.8,0.5,1.6,1.3,1.7c0.3,0,7.3,1.1,7.9,9.3c0.1,0.8,0.7,1.4,1.5,1.4
	h0.1c0.8-0.1,1.4-0.8,1.4-1.6C-356.4,271.1-360.8,266.1-366.6,265z"/>
</svg>
