<?xml version="1.0" encoding="utf-8"?>
<!-- Generator: Adobe Illustrator 19.0.0, SVG Export Plug-In . SVG Version: 6.00 Build 0)  -->
<svg version="1.1" id="Layer_1" xmlns="http://www.w3.org/2000/svg" xmlns:xlink="http://www.w3.org/1999/xlink" x="0px" y="0px"
	 viewBox="-429 218 100 97" style="enable-background:new -429 218 100 97;" xml:space="preserve">
<style type="text/css">
	.st0{fill:#55653F;}
</style>
<title>Artboard Copy 3</title>
<desc>Created with Sketch.</desc>
<g>
	<g>
		<path class="st0" d="M-408,239h59c2.8,0,5,2.2,5,5l0,0c0,2.8-2.2,5-5,5h-59c-2.8,0-5-2.2-5-5l0,0C-413,241.2-410.8,239-408,239z"
			/>
		<path class="st0" d="M-408,263h59c2.8,0,5,2.2,5,5l0,0c0,2.8-2.2,5-5,5h-59c-2.8,0-5-2.2-5-5l0,0C-413,265.2-410.8,263-408,263z"
			/>
		<path class="st0" d="M-408,287h59c2.8,0,5,2.2,5,5l0,0c0,2.8-2.2,5-5,5h-59c-2.8,0-5-2.2-5-5l0,0C-413,289.2-410.8,287-408,287z"
			/>
	</g>
</g>
</svg>
