<?xml version="1.0" encoding="utf-8"?>
<!-- Generator: Adobe Illustrator 19.0.0, SVG Export Plug-In . SVG Version: 6.00 Build 0)  -->
<svg version="1.1" id="Layer_1" xmlns="http://www.w3.org/2000/svg" xmlns:xlink="http://www.w3.org/1999/xlink" x="0px" y="0px"
	 viewBox="-429 229.1 100.2 102.9" style="enable-background:new -429 229.1 100.2 102.9;" xml:space="preserve">
<style type="text/css">
	.st0{fill:#FFFFFF;stroke:#FFFFFF;stroke-miterlimit:10;}
</style>
<path class="st0" d="M-346.6,248.9c-0.1-0.3-0.4-0.7-1.1-0.7c-3.2,0-39.8,5.2-49.1,14.5c-4.8,4.8-7.4,11.1-7.4,17.9
	c0,6.4,2.4,12.5,6.7,17.2l-13.5,13.5c-0.4,0.4-0.4,1,0,1.4c0.2,0.2,0.5,0.3,0.7,0.3c0.3,0,0.5-0.1,0.7-0.3l13.5-13.5
	c4.7,4.3,10.7,6.7,17.2,6.7c6.8,0,13.1-2.6,17.9-7.4c4.1-4.1,7.7-13.6,10.9-28.4c2.2-10.5,3.4-20,3.5-20.8
	C-346.5,249.3-346.5,249.1-346.6,248.9z M-362.5,297.1c-4.4,4.4-10.2,6.8-16.5,6.8c-5.9,0-11.4-2.2-15.8-6.1l8.1-8.1h15.8
	c0.6,0,1-0.5,1-1s-0.5-1-1-1h-13.8l6.1-6.1h15.8c0.6,0,1-0.5,1-1s-0.5-1-1-1h-13.8L-355,258c0.4-0.4,0.4-1,0-1.4s-1-0.4-1.4,0
	l-21.6,21.6v-14.3c0-0.6-0.5-1-1-1s-1,0.5-1,1v16.3l-6.1,6.1V272c0-0.6-0.5-1-1-1s-1,0.5-1,1v16.3l-8.1,8.1c-4-4.3-6.1-9.8-6.1-15.8
	c0-6.2,2.4-12.1,6.8-16.5c8.2-8.2,40.1-13.3,46.7-13.9C-349.5,256.9-354.2,288.9-362.5,297.1z"/>
</svg>
