<?xml version="1.0" encoding="utf-8"?>
<!-- Generator: Adobe Illustrator 19.0.0, SVG Export Plug-In . SVG Version: 6.00 Build 0)  -->
<svg version="1.1" id="Layer_1" xmlns="http://www.w3.org/2000/svg" xmlns:xlink="http://www.w3.org/1999/xlink" x="0px" y="0px"
	 viewBox="-221 128.9 515.5 305.1" style="enable-background:new -221 128.9 515.5 305.1;" xml:space="preserve">
<style type="text/css">
	.st0{fill:#282828;}
</style>
<g>
	<path class="st0" d="M17.1,161.4c-0.1,3,0.6,6.3-0.4,9c-8.6,22.9-17.4,45.7-26.4,68.4c-17.7,44.8-30.9,91-42.2,137.8
		c-3.8,16-5.1,17.1-21.6,15.8c-7.4-0.6-8.9-2.3-9-9.5c-1-41.5-12.2-80.4-29.4-117.8c-9.7-21-21.8-40.5-39.1-56.2
		c-5.4-4.9-11.6-9-17.6-13.1c-4.3-2.9-4.6-6.2-0.5-9.4c7.9-6,18.3-6.4,26.3-0.8c18.6,12.9,31.1,30.8,41.4,50.5
		c16.9,32.3,26.8,66.9,34.3,102.3c0.2,0.8,0.4,1.5,1.5,2.5c0.5-1.6,1-3.2,1.6-4.8c17.1-50.6,34.3-101.1,51.1-151.7
		c4.1-12.5,11.5-20.3,24.7-22.2c0.4-0.1,0.8-0.5,1.2-0.8C14.5,161.4,15.8,161.4,17.1,161.4z"/>
	<path class="st0" d="M-43.6,388.3c20.2-25.4,39.6-51.2,52.4-82c-1.6-0.7-3.1-1.3-4.6-1.9c-10-4.2-15.6-12.9-15.2-23.5
		c0.3-10.7,7.5-21.2,16.8-24.6c9.7-3.5,20.1,1.5,23.2,11.4c2.4,7.6,2.3,15.4,0.7,23.2c-0.5,2.3-1,4.5-1.8,7.8
		c3.9-1,7.2-1.6,10.3-2.9c8.3-3.3,16.5-7.1,24.8-10.4c3.4-1.4,6.9-2.6,10.4-3.2c5.6-1,7,0.8,4.6,5.9c-5.3,11.3-10.9,22.4-16.3,33.7
		c-2.7,5.5-5.1,11.2-7.7,16.8c-0.4,0.9-0.9,2-0.8,2.9c0.5,3.1,1.2,6.1,1.8,9.2c2.6-1.5,6-2.3,7.6-4.5c6.5-8.8,12.4-18,18.4-27.2
		c0.8-1.3,1.1-3.1,1.1-4.7c0-24.8,12-43,31.3-57.2c11.3-8.2,23.7-13.3,37.9-13.7c1,0,2,0.1,3.9,0.2c-1.3,5.4-2.4,10.5-3.7,15.5
		c-3.3,12.2-6.7,24.4-9.8,36.6c-0.8,3-0.9,6.4-0.4,9.4c1,5.6,5.7,7.2,10,3.4c2.7-2.4,5-5.4,7-8.4c11.2-16.1,18.1-34.4,25.6-52.3
		c1.1-2.6,2.1-5.2,3.2-7.8c5.1-12.2,10-15,24.2-13.3c-0.6,1.6-1.2,3.1-1.8,4.5c-7,18.2-13.9,36.3-20.8,54.5c-1,2.6-1.9,5.4-2,8.2
		c-0.1,2,1,4.1,1.6,6.2c2.2-0.7,5.4-0.8,6.4-2.3c3.6-5.5,6.8-11.4,9.6-17.4c3.6-7.8,7.6-10.3,18-8.9c-7.9,12-14.8,23.9-23.1,34.7
		c-5.7,7.5-14.6,8.5-20.8,3.3c-3.3-2.7-5-7.4-6.9-10.3c-3.6,4.9-7.4,11.2-12.4,16.4c-3.5,3.7-8.4,6.8-13.2,8.4
		c-7.6,2.4-11.3-0.3-15.6-9.5c-0.9,2-1.6,3.6-2.4,5.2c-3.9,8.2-9.8,14.1-18.7,16.8c-10.1,3.1-16.4,0.8-24.4-9.8
		c-1.6,2.7-2.9,5.3-4.7,7.6c-6.8,8.7-13.4,17.7-20.9,25.9c-4.5,4.9-10.7,7.3-17.8,5.6c-6-1.5-9.2-5-8.3-11.1
		c0.7-5.2,2.6-10.3,4.7-15.1c5.4-12.6,11.2-25.1,17.3-38.7c-7.6,1.9-14.1,4.4-20.7,5c-7.9,0.7-11,4.9-14.4,11.6
		c-10.3,20.7-21.6,40.8-32.7,61.1c-1,1.8-2.7,3.8-4.5,4.4c-8.3,2.7-16.7,5-25,7.4C-42.6,389.8-43.1,389-43.6,388.3z M140.4,256.9
		c-1.8,0.7-2.4,0.8-3,1.1c-2.6,1.5-5.3,2.9-7.8,4.5c-18.4,11.7-27.3,29.4-31.1,50.1c-1.2,6.3,2.8,11.4,8,10.5
		c3.3-0.6,7.3-2.5,9.1-5.1c4.1-5.7,7.6-12.1,10.3-18.6c3.2-7.5,5.3-15.4,7.9-23.1C135.9,270.3,138,264.1,140.4,256.9z M13.4,296.5
		c3.8-6.6,5.6-21,3.2-27.7c-0.7-2-2.7-4.8-4.2-4.8c-2.2-0.1-5.2,1.3-6.8,3.1C-1.3,275.1,3.1,291.9,13.4,296.5z"/>
	<path class="st0" d="M210.1,185.2c5.6,0,9.5,3.9,9.5,9.3c0,5.2-4.2,9.5-9.4,9.7c-5.3,0.1-10-4.6-9.8-9.8
		C200.5,189.1,204.7,185.2,210.1,185.2z"/>
</g>
</svg>
